<?xml version="1.0" encoding="UTF-8"?>
<svg id="Layer_1" xmlns="http://www.w3.org/2000/svg" version="1.1" viewBox="0 0 126.83 205.43">
  <!-- Generator: Adobe Illustrator 29.8.4, SVG Export Plug-In . SVG Version: 2.1.1 Build 6)  -->
  <defs>
    <style>
      .st0 {
        fill: #f6a759;
      }

      .st1 {
        fill: #f49537;
      }

      .st2 {
        fill: #f39f50;
      }

      .st3 {
        fill: #f38621;
      }
    </style>
  </defs>
  <path class="st1" d="M126.83,107c-1.74,1.14-53.54,37.7-53.54,37.7l25.09,25.35,28.45-63.05Z"/>
  <polygon class="st2" points="62.97 205.43 73.29 144.7 73.29 144.7 98.38 170.05 62.97 205.43"/>
  <polygon class="st0" points="62.97 205.43 15.95 179.75 73.29 144.7 73.29 144.7 62.97 205.43"/>
  <polygon class="st3" points="73.29 144.7 68.78 0 126.83 107 73.29 144.7 73.29 144.7"/>
  <polygon class="st1" points="73.29 144.7 73.29 144.7 0 75.62 68.78 0 73.29 144.7"/>
  <polygon class="st2" points="73.29 144.7 15.95 179.75 0 75.62 73.29 144.7"/>
</svg>