<?xml version="1.0" encoding="UTF-8"?>
<svg id="Layer_1" xmlns="http://www.w3.org/2000/svg" version="1.1" viewBox="0 0 574.75 335.21">
  <!-- Generator: Adobe Illustrator 29.8.4, SVG Export Plug-In . SVG Version: 2.1.1 Build 6)  -->
  <defs>
    <style>
      .st0 {
        fill: #f39e4e;
      }

      .st1 {
        fill: #f49436;
      }

      .st2 {
        fill: #ecedee;
      }

      .st3 {
        fill: #f48620;
      }

      .st4 {
        fill: #f6a659;
      }
    </style>
  </defs>
  <g>
    <path class="st2" d="M0,335.21v-92.71h18.54v37.08h37.07v-37.08h18.54v92.71h-18.54v-37.08H18.54v37.08H0Z"/>
    <path class="st2" d="M92.69,335.21v-18.54h18.54v-55.62h-18.54v-18.54h55.62v18.54h-18.54v55.62h18.54v18.54h-55.62Z"/>
    <path class="st2" d="M185.39,335.21h-18.54v-92.71h74.16v18.54h-55.62v49.44l.03,6.18h37.05v-18.54h-18.54v-18.54h37.08v55.62h-55.62Z"/>
    <path class="st2" d="M259.55,335.21v-92.71h18.54v37.08h37.1v-37.08h18.54v92.71h-18.54v-37.08h-37.1v37.08h-18.54Z"/>
    <path class="st2" d="M407.89,335.16l-18.54-37.03h-18.54v37.08h-18.54v-74.16h.04v-18.54h74.12v55.62h-18.55l18.54,37.08M407.89,279.58v-18.54h-37.08v18.54h37.08Z"/>
    <path class="st2" d="M444.97,335.21v-92.71h55.62v18.54h-37.08v18.54h37.08v18.54h-37.08v18.54h37.08v18.54h-55.62Z"/>
    <path class="st2" d="M519.13,298.03v-55.53h55.62v18.54h-37.16v18.53h37.16v55.53h-55.62v-18.46h37.21v-18.62h-37.21Z"/>
  </g>
  <g>
    <path class="st1" d="M350.79,107c-1.74,1.14-53.54,37.7-53.54,37.7l25.09,25.35,28.45-63.05Z"/>
    <polygon class="st0" points="286.93 205.43 297.25 144.7 297.25 144.7 322.34 170.05 286.93 205.43"/>
    <polygon class="st4" points="286.93 205.43 239.92 179.75 297.25 144.7 297.25 144.7 286.93 205.43"/>
    <polygon class="st3" points="297.25 144.7 292.75 0 350.79 107 297.25 144.7 297.25 144.7"/>
    <polygon class="st1" points="297.25 144.7 297.25 144.7 223.96 75.62 292.75 0 297.25 144.7"/>
    <polygon class="st0" points="297.25 144.7 239.92 179.75 223.96 75.62 297.25 144.7"/>
  </g>
</svg>