<?xml version="1.0" encoding="UTF-8"?>
<svg id="Layer_1" xmlns="http://www.w3.org/2000/svg" version="1.1" viewBox="0 0 774.44 205.43">
  <!-- Generator: Adobe Illustrator 29.8.4, SVG Export Plug-In . SVG Version: 2.1.1 Build 6)  -->
  <defs>
    <style>
      .st0 {
        fill: #f6a759;
      }

      .st1 {
        fill: #f49537;
      }

      .st2 {
        fill: #f39f50;
      }

      .st3 {
        fill: #f38621;
      }

      .st4 {
        fill: #ecedee;
      }
    </style>
  </defs>
  <g>
    <path class="st4" d="M0,158.34v-92.71h18.54v37.08h37.07v-37.08h18.54v92.71h-18.54v-37.08H18.54v37.08H0Z"/>
    <path class="st4" d="M92.69,158.34v-18.54h18.54v-55.62h-18.54v-18.54h55.62v18.54h-18.54v55.62h18.54v18.54h-55.62Z"/>
    <path class="st4" d="M185.39,158.34h-18.54v-92.71h74.16v18.54h-55.62v49.44l.03,6.18h37.05v-18.54h-18.54v-18.54h37.08v55.62h-55.62Z"/>
    <path class="st4" d="M259.55,158.34v-92.71h18.54v37.08h37.1v-37.08h18.54v92.71h-18.54v-37.08h-37.1v37.08h-18.54Z"/>
    <path class="st4" d="M407.89,158.29l-18.54-37.03h-18.54v37.08h-18.54v-74.16h.04v-18.54h74.12v55.62h-18.55l18.54,37.08M407.89,102.71v-18.54h-37.08v18.54h37.08Z"/>
    <path class="st4" d="M444.97,158.34v-92.71h55.62v18.54h-37.08v18.54h37.08v18.54h-37.08v18.54h37.08v18.54h-55.62Z"/>
    <path class="st4" d="M519.13,121.16v-55.53h55.62v18.54h-37.16v18.53h37.16v55.53h-55.62v-18.46h37.21v-18.62h-37.21Z"/>
  </g>
  <g>
    <path class="st1" d="M774.44,107c-1.74,1.14-53.54,37.7-53.54,37.7l25.09,25.35,28.45-63.05Z"/>
    <polygon class="st2" points="710.59 205.43 720.91 144.7 720.91 144.7 745.99 170.05 710.59 205.43"/>
    <polygon class="st0" points="710.59 205.43 663.57 179.75 720.91 144.7 720.91 144.7 710.59 205.43"/>
    <polygon class="st3" points="720.91 144.7 716.4 0 774.44 107 720.91 144.7 720.91 144.7"/>
    <polygon class="st1" points="720.91 144.7 720.91 144.7 647.61 75.62 716.4 0 720.91 144.7"/>
    <polygon class="st2" points="720.91 144.7 663.57 179.75 647.61 75.62 720.91 144.7"/>
  </g>
</svg>